# AST/ASF file generated using VICON BodyLanguage
# -----------------------------------------------
:version 1.10
:name VICON
:units
  mass 1.0
  length 0.1
  angle deg
:documentation
   .ast/.asf automatically generated from VICON data using
   VICON BodyBuilder and BodyLanguage model FULLBODY5.MOD
:root
   order TX TY TZ RZ RY RX
   axis XYZ
   position 0 0 0  
   orientation 0 -0 0 
:bonedata
  begin
     id 1 
     name lhipjoint
     direction 0.969109 -0.218487 0.11442 
     length 0.544217 
     axis 0 -0 0  XYZ
  end
  begin
     id 2 
     name lfemur
     direction 0.173648 -0.984808 0  
     length 1.81499  
     axis 0 -0 10  XYZ
    dof rx ry rz
    limits (-180.0 180.0)
           (-180.0 180.0)
           (-180.0 180.0)
  end
  begin
     id 3 
     name ltibia
     direction 0.173515 -0.984831 0   
     length 1.55296   
     axis 0 -0 10   XYZ
    dof rx ry rz
    limits (-180.0 180.0)
           (-180.0 180.0)
           (-180.0 180.0)
  end
  begin
     id 4 
     name lfoot
     direction 7.36097e-012 -0.333012 0.942922   
     length 0.509062   
     axis -90 -1.73656e-015 10   XYZ
    dof rx ry rz
    limits (-180.0 180.0)
           (-180.0 180.0)
           (-180.0 180.0)
  end
  begin
     id 5 
     name ltoes
     direction 7.7847e-012 -4.42403e-011 1   
     length 0.249732   
     axis -90 -1.73656e-015 10   XYZ
    dof rx ry rz
    limits (-180.0 180.0)
           (-180.0 180.0)
           (-180.0 180.0)
  end
  begin
     id 6 
     name rhipjoint
     direction -0.966745 -0.226554 0.118645   
     length 0.524838  
     axis 0 -0 0  XYZ 
  end
  begin
     id 7 
     name rfemur
     direction -0.173648 -0.984808 0   
     length 1.84625   
     axis 0 -0 -10   XYZ
    dof rx ry rz
    limits (-180.0 180.0)
           (-180.0 180.0)
           (-180.0 180.0)
  end
  begin
     id 8 
     name rtibia
     direction -0.173714 -0.984796 0   
     length 1.577   
     axis 0 -0 -10   XYZ
    dof rx ry rz
    limits (-180.0 180.0)
           (-180.0 180.0)
           (-180.0 180.0)
 end
 begin
     id 9 
     name rfoot
     direction -0.0183819 -0.0406144 0.999006   
     length 0.490111  
     axis -90 1.73656e-015 -10   XYZ
    dof rx ry rz
    limits (-180.0 180.0)
           (-180.0 180.0)
           (-180.0 180.0)
  end
  begin
     id 10 
     name rtoes
     direction -7.79087e-012 -4.42375e-011 1   
     length 0.245053   
     axis -90 1.73656e-015 -10   XYZ
    dof rx ry rz
    limits (-180.0 180.0)
           (-180.0 180.0)
           (-180.0 180.0)
  end
  begin
     id 11 
     name lowerback
     direction -0.0664844 0.980601 0.184393   
     length 0.458979   
     axis 0 -0 0   XYZ
    dof rx ry rz
    limits (-180.0 180.0)
           (-180.0 180.0)
           (-180.0 180.0)
  end
  begin
     id 12 
     name upperback
     direction 0.0135995 0.999573 0.02588   
     length 0.463983   
     axis 0 -0 0   XYZ
    dof rx ry rz
    limits (-180.0 180.0)
           (-180.0 180.0)
           (-180.0 180.0)
  end
  begin
     id 13 
     name thorax
     direction 0.0468402 0.997311 -0.0563691   
     length 0.482746   
     axis 0 -0 0   XYZ
    dof rx ry rz
    limits (-180.0 180.0)
           (-180.0 180.0)
           (-180.0 180.0)
  end
  begin
     id 14 
     name lowerneck
     direction -0.00174311 0.988586 -0.150647   
     length 0.364383   
     axis 0 -0 0   XYZ
    dof rx ry rz
    limits (-180.0 180.0)
           (-180.0 180.0)
           (-180.0 180.0)
  end
  begin
     id 15 
     name upperneck
     direction -0.02653 0.999379 -0.0231908   
     length 0.361006   
     axis 0 -0 0   XYZ
    dof rx ry rz
    limits (-180.0 180.0)
           (-180.0 180.0)
           (-180.0 180.0)
  end
  begin
     id 16
     name head
     direction -0.00819207 0.999941 0.00714285  
     length 0.378714  
     axis 0 -0 0   XYZ
    dof rx ry rz
    limits (-180.0 180.0)
           (-180.0 180.0)
           (-180.0 180.0)
  end
  begin
     id 17 
     name lshoulderjoint
     direction 0.981627 -0.190809 0  
     length 0.612969  
     axis 0 -0 -11   XYZ
    dof rx ry rz
    limits (-180.0 180.0)
           (-180.0 180.0)
           (-180.0 180.0)
  end
  begin
     id 18 
     name lhumerus
     direction 0.48481 -0.87462 -9.72962e-027   
     length 1.19637   
     axis -180 5.14477e-009 -151   XYZ
    dof rx ry rz
    limits (-180.0 180.0)
           (-180.0 180.0)
           (-180.0 180.0)
  end
  begin
     id 19
     name lradius
     direction 0.48481 -0.87462 -2.35761e-026   
     length 0.637735   
     axis -180 5.14477e-009 -151   XYZ
    dof rx ry rz
    limits (-180.0 180.0)
           (-180.0 180.0)
           (-180.0 180.0)
  end
  begin
     id 20
     name lwrist
     direction 0.48481 -0.87462 -5.51856e-026   
     length 0.318868   
     axis -180 5.14477e-009 -151   XYZ
    dof rx ry rz
    limits (-180.0 180.0)
           (-180.0 180.0)
           (-180.0 180.0)
  end
  begin
     id 21 
     name lhand
     direction 0.477747 -0.861928 -0.169816   
     length 0.29526   
     axis -180 5.14477e-009 -151   XYZ
    dof rx ry rz
    limits (-180.0 180.0)
           (-180.0 180.0)
           (-180.0 180.0)
  end
  begin
     id 22 
     name rshoulderjoint
     direction -0.981627 -0.190809 0   
     length 0.572347  
     axis 0 -0 11   XYZ 
    dof rx ry rz
    limits (-180.0 180.0)
           (-180.0 180.0)
           (-180.0 180.0)
  end
  begin
     id 23 
     name rhumerus
     direction -0.48481 -0.87462 1.64836e-026  
     length 1.28846   
     axis 180 5.14477e-009 151   XYZ
    dof rx ry rz
    limits (-180.0 180.0)
           (-180.0 180.0)
           (-180.0 180.0)
  end
  begin
     id 24 
     name rradius
     direction -0.48481 -0.87462 2.86827e-026   
     length 0.62107   
     axis 180 5.14477e-009 151   XYZ
    dof rx ry rz
    limits (-180.0 180.0)
           (-180.0 180.0)
           (-180.0 180.0)
  end
  begin
     id 25 
     name rwrist
     direction -0.48481 -0.87462 5.20942e-026   
     length 0.310535   
     axis 180 5.14477e-009 151   XYZ
    dof rx ry rz
    limits (-180.0 180.0)
           (-180.0 180.0)
           (-180.0 180.0)
  end
  begin
     id 26
     name rhand
     direction -0.477664 -0.861515 -0.172133   
     length 0.291321   
     axis 180 5.14477e-009 151   XYZ
    dof rx ry rz
    limits (-180.0 180.0)
           (-180.0 180.0)
           (-180.0 180.0)
  end
:hierarchy
  begin
    root lhipjoint rhipjoint lowerback 
    lhipjoint lfemur
    lfemur ltibia
    ltibia lfoot
    lfoot ltoes
    rhipjoint rfemur
    rfemur rtibia
    rtibia rfoot
    rfoot rtoes
    lowerback upperback
    upperback thorax
    thorax lowerneck lshoulderjoint rshoulderjoint
    lowerneck upperneck
    upperneck head
    lshoulderjoint lhumerus
    lhumerus lradius
    lradius lwrist
    lwrist lhand
    rshoulderjoint rhumerus
    rhumerus rradius
    rradius rwrist
    rwrist rhand
  end

:FULLY-SPECIFIED
:DEGREES
1747
root -10.6195 3.81451 -0.274972 271.18 67.1305 90.0966
lowerback -24.7903 -2.14788 -6.47137
upperback -7.61868 -0.698385 1.37686
thorax 5.43737 -0.0470265 5.04709
lowerneck 14.0102 -2.71388 1.88217
upperneck 6.05916 -2.93151 -5.50977
head -0.567077 -1.18688 -1.93713
rshoulderjoint -2.38488 7.20995 -29.358
rhumerus 345.952 -7.37897 -411.704
rradius 23.7083 -1.14425e-014 -4.6118e-014
rwrist 7.15087e-013 7.31713 -1.69953e-013
rhand 7.81488 -6.23549 31.3561
lshoulderjoint -1.80567 -5.23644 30.0561
lhumerus 352.502 14.7394 415.985
lradius 14.3652 9.70069e-014 -3.49861e-014
lwrist 5.99705e-013 -7.36034 -4.00872e-014
lhand 10.2698 6.5923 -27.1769
rfemur -16.8566 16.4115 10.3332
rtibia 1.79736 2.70347e-014 7.95139e-016
rfoot -173.951 -40.9906 157.767
rtoes -1.90833e-014 6.45212e-014 9.34288e-014
lfemur -24.8997 -19.6688 -8.09896
ltibia 19.8699 -3.81667e-014 -6.36111e-015
lfoot -16.2508 9.72764 18.9608
ltoes 8.15017e-014 1.87603e-015 4.11484e-014
1748
root -10.6178 3.81152 -0.273782 270.825 67.262 90.1799
lowerback -24.3812 -2.00731 -6.03413
upperback -7.52843 -0.665499 1.38882
thorax 5.32846 -0.0386344 4.8144
lowerneck 13.8943 -2.70749 1.86467
upperneck 5.90917 -2.94196 -5.51008
head -0.596615 -1.19611 -1.9339
rshoulderjoint -2.37888 7.1955 -29.3491
rhumerus 346.013 -7.29233 -411.751
rradius 23.8505 -7.76503e-015 -2.06736e-014
rwrist 5.78734e-013 7.2635 -9.69901e-014
rhand 7.80922 -6.19431 31.3891
lshoulderjoint -1.82261 -5.27444 30.0938
lhumerus 352.596 15.0132 415.965
lradius 14.4698 5.725e-014 8.74653e-014
lwrist 5.13359e-013 -7.56678 2.10958e-013
lhand 10.3111 6.71758 -27.5636
rfemur -16.2692 16.3943 10.6781
rtibia 0.976343 -2.8625e-014 -3.18055e-015
rfoot -174.283 -40.9683 157.969
rtoes -4.21423e-014 -2.56715e-013 7.43455e-014
lfemur -25.8708 -19.4703 -7.92604
ltibia 22.2577 4.13472e-014 8.74653e-015
lfoot -16.8808 9.91638 18.701
ltoes 7.55382e-014 -7.4097e-014 2.78299e-014
1749
root -10.6161 3.80799 -0.272841 270.371 67.4522 90.285
lowerback -23.9128 -1.8616 -5.52697
upperback -7.40494 -0.648592 1.44797
thorax 5.22745 -0.0408986 4.5885
lowerneck 13.8157 -2.68986 1.79647
upperneck 5.68549 -2.94916 -5.50518
head -0.654956 -1.20387 -1.91988
rshoulderjoint -2.39199 7.22636 -29.3704
rhumerus 346.074 -7.31473 -411.77
rradius 23.9871 1.44367e-014 -3.81667e-014
rwrist 3.5271e-014 7.28746 -7.85582e-014
rhand 7.82251 -6.14904 31.4041
lshoulderjoint -1.83001 -5.29989 30.0807
lhumerus 352.716 15.2114 415.946
lradius 14.5478 -2.70347e-014 1.27222e-014
lwrist 2.72981e-014 -7.96493 4.57644e-014
lhand 10.3783 7.12249 -28.0087
rfemur -15.5377 16.3654 11.1222
rtibia 5.88403e-014 -2.22639e-014 -8.74653e-015
rfoot -174.71 -40.976 158.265
rtoes 5.64548e-014 -3.98812e-014 -5.20816e-014
lfemur -26.8058 -18.6075 -7.9004
ltibia 24.81 2.54444e-014 1.35174e-014
lfoot -17.4583 9.83833 17.7858
ltoes -8.42847e-014 -1.4064e-014 3.26007e-014
1750
root -10.6141 3.80412 -0.271993 269.796 67.6907 90.414
lowerback -23.3583 -1.70346 -4.92352
upperback -7.29262 -0.639057 1.53986
thorax 5.06983 -0.0449887 4.34026
lowerneck 13.7518 -2.66934 1.71501
upperneck 5.4626 -2.95316 -5.52807
head -0.71578 -1.20896 -1.91278
rshoulderjoint -2.40917 7.26362 -29.4055
rhumerus 346.113 -7.14502 -411.798
rradius 24.1212 -6.41081e-015 1.47101e-013
rwrist 1.29851e-013 7.25135 2.62908e-013
rhand 7.75906 -6.17643 31.4698
lshoulderjoint -1.81489 -5.26022 30.0663
lhumerus 352.834 15.5734 415.939
lradius 14.5947 4.13472e-014 6.99722e-014
lwrist 1.49533e-013 -8.48728 1.4069e-013
lhand 10.5862 7.44767 -28.4687
rfemur -15.2001 16.3406 11.677
rtibia -4.29375e-014 5.40694e-014 2.14687e-014
rfoot -174.439 -40.7738 158.101
rtoes -1.98785e-014 4.8724e-013 4.13472e-014
lfemur -27.7983 -18.0843 -7.68233
ltibia 27.472 -4.45278e-014 -2.06736e-014
lfoot -17.948 10.0729 17.1931
ltoes 5.32743e-014 8.36386e-014 3.85642e-014
1751
root -10.6119 3.8 -0.271081 269.239 67.9742 90.6031
lowerback -22.756 -1.5508 -4.40854
upperback -7.15842 -0.611002 1.59782
thorax 4.9079 -0.0416334 4.11064
lowerneck 13.7129 -2.65719 1.68919
upperneck 5.18028 -2.96467 -5.55212
head -0.801781 -1.21631 -1.91553
rshoulderjoint -2.42479 7.32011 -29.3843
rhumerus 346.144 -7.09577 -411.804
rradius 24.2573 3.50855e-014 3.89618e-014
rwrist -1.43951e-012 7.22737 2.2362e-013
rhand 7.7557 -6.13907 31.533
lshoulderjoint -1.82567 -5.28615 30.0844
lhumerus 352.972 15.906 415.937
lradius 14.6355 -2.75118e-013 7.35503e-014
lwrist -1.32783e-012 -8.86258 7.3232e-014
lhand 10.8446 7.68302 -28.9759
rfemur -14.8055 16.2916 12.1699
rtibia 4.45278e-014 -6.20208e-014 -2.38542e-015
rfoot -174.131 -40.557 157.924
rtoes 2.54444e-013 1.2096e-013 -1.49884e-013
lfemur -28.7991 -17.5346 -7.56844
ltibia 30.2044 4.13472e-014 2.22639e-014
lfoot -18.281 10.1934 16.6388
ltoes -2.50469e-013 3.52843e-014 1.82882e-014
1752
root -10.6096 3.79584 -0.270021 268.583 68.245 90.8082
lowerback -22.1692 -1.3683 -3.79486
upperback -6.98904 -0.558042 1.64068
thorax 4.78705 -0.0289641 3.81461
lowerneck 13.52 -2.65355 1.69908
upperneck 4.96135 -2.98201 -5.55351
head -0.841581 -1.23019 -1.91756
rshoulderjoint -2.38462 7.23887 -29.2881
rhumerus 346.284 -6.93509 -411.792
rradius 24.3911 -1.47101e-014 -7.95139e-016
rwrist -2.3567e-013 7.27982 3.92784e-014
rhand 7.69297 -6.14138 31.5982
lshoulderjoint -1.84571 -5.32864 30.1365
lhumerus 353.17 16.0452 415.927
lradius 14.6885 -2.08326e-013 3.89618e-014
lwrist -1.09568e-013 -9.26515 1.69186e-013
lhand 10.9601 8.04597 -29.5587
rfemur -14.4294 16.2416 12.7525
rtibia -3.49861e-014 -9.54166e-015 -2.38542e-015
rfoot -173.853 -40.3601 157.774
rtoes -7.87187e-014 -1.58736e-013 9.70069e-014
lfemur -29.8718 -16.9724 -7.3583
ltibia 33.0054 1.59028e-014 -1.59028e-015
lfoot -18.4429 10.311 16.0974
ltoes 7.63333e-014 -2.33075e-014 2.42517e-014
1753
root -10.6061 3.79142 -0.269041 267.974 68.5468 91.0458
lowerback -21.5622 -1.23468 -3.33233
upperback -6.83351 -0.532739 1.75418
thorax 4.64247 -0.0273952 3.67457
lowerneck 13.385 -2.64343 1.60954
upperneck 4.74544 -3.00114 -5.62594
head -0.889747 -1.24266 -1.92492
rshoulderjoint -2.40608 7.2782 -29.3493
rhumerus 346.321 -6.76514 -411.79
rradius 24.5115 -1.43125e-014 -3.89618e-014
rwrist 1.18629e-013 7.25086 -7.37425e-014
rhand 7.63817 -6.13086 31.6779
lshoulderjoint -1.83624 -5.31771 30.0816
lhumerus 353.343 16.2504 415.966
lradius 14.6663 -3.02153e-014 -4.81059e-014
lwrist 9.35933e-014 -9.7694 -5.88992e-014
lhand 11.0663 8.38666 -30.1742
rfemur -13.9972 16.1774 13.2607
rtibia -6.52014e-014 -1.11319e-014 -1.11319e-014
rfoot -173.578 -40.1567 157.612
rtoes -1.51076e-014 -1.15208e-013 1.98785e-015
lfemur -30.8811 -16.3339 -7.27095
ltibia 35.792 1.59028e-014 3.18055e-015
lfoot -18.5279 10.6242 15.5162
ltoes 1.03368e-013 -5.63555e-014 -3.97569e-015
